<svg xmlns="http://www.w3.org/2000/svg" xmlns:xlink="http://www.w3.org/1999/xlink" version="1.1" x="0px" y="0px" viewBox="0 0 36 36" enable-background="new 0 0 32 32" xml:space="preserve"><g><rect fill="none" width="32" height="32"/></g><g><g><path fill="#aaaaaa" d="M11.199,30.993c-0.512,0-1.024-0.195-1.414-0.585l-8.193-8.193c-0.378-0.378-0.586-0.88-0.586-1.414    c0-0.535,0.208-1.037,0.586-1.415L19.393,1.585c0.779-0.779,2.049-0.779,2.828,0l8.193,8.194c0.78,0.78,0.78,2.049,0,2.829    L12.613,30.408C12.224,30.798,11.711,30.993,11.199,30.993z M20.807,3L3.006,20.801l8.194,8.194L29,11.193L20.807,3z"/></g><g><path fill="#aaaaaa" d="M20.12,16.582c-0.512,0-1.024-0.195-1.414-0.585l-2.703-2.703c-0.78-0.78-0.78-2.048,0-2.828l2.703-2.704    c0.778-0.779,2.047-0.78,2.829,0l2.703,2.704c0.78,0.78,0.78,2.048,0,2.828l-2.703,2.703    C21.146,16.387,20.633,16.582,20.12,16.582z M20.121,9.176l-2.704,2.704l2.704,2.704l2.703-2.704L20.121,9.176z"/></g><g><path fill="#aaaaaa" d="M11.886,24.817c-0.512,0-1.024-0.195-1.414-0.585l-2.703-2.704c-0.378-0.377-0.586-0.879-0.586-1.414    c0-0.534,0.208-1.036,0.586-1.414l2.703-2.703c0.779-0.78,2.049-0.78,2.828,0l2.703,2.703c0.378,0.378,0.586,0.88,0.586,1.414    c0,0.535-0.208,1.037-0.586,1.415L13.3,24.232C12.91,24.622,12.397,24.817,11.886,24.817z M11.886,22.818L11.886,22.818    l2.703-2.704l-2.703-2.703l-2.703,2.703L11.886,22.818z"/></g><g><path fill="#aaaaaa" d="M18.062,29.622c-0.534,0-1.036-0.208-1.414-0.586l-2.745-2.745l12.395-12.394l2.745,2.745c0.78,0.78,0.78,2.048,0,2.828    l-9.566,9.566c-0.376,0.377-0.878,0.585-1.412,0.586C18.062,29.622,18.062,29.622,18.062,29.622z M16.73,26.291l1.332,1.332    l9.565-9.567l-1.331-1.331L16.73,26.291z"/></g></g></svg>